<mxfile host="app.diagrams.net" modified="2024-02-06T03:26:28.639Z" agent="Mozilla/5.0 (Windows NT 10.0; Win64; x64) AppleWebKit/537.36 (KHTML, like Gecko) Chrome/121.0.0.0 Safari/537.36" etag="4ADtTRceHiIg8e-YdrBY" version="23.1.1" type="github">
  <diagram name="Halaman-1" id="mA649_6iEAgRwGu2nml7">
    <mxGraphModel dx="1242" dy="474" grid="0" gridSize="10" guides="1" tooltips="1" connect="1" arrows="1" fold="1" page="0" pageScale="1" pageWidth="827" pageHeight="1169" math="0" shadow="0">
      <root>
        <mxCell id="0" />
        <mxCell id="1" parent="0" />
        <mxCell id="gj2Nrd75Vjams3eJLkal-1" value="Sistem Aplikasi&amp;nbsp;&lt;br&gt;" style="ellipse;whiteSpace=wrap;html=1;fontSize=16;" vertex="1" parent="1">
          <mxGeometry x="200" y="153" width="144" height="80" as="geometry" />
        </mxCell>
        <mxCell id="gj2Nrd75Vjams3eJLkal-2" value="Pengguna" style="rounded=0;whiteSpace=wrap;html=1;fontSize=16;" vertex="1" parent="1">
          <mxGeometry x="-122" y="167" width="120" height="60" as="geometry" />
        </mxCell>
        <mxCell id="gj2Nrd75Vjams3eJLkal-4" value="Admin" style="rounded=0;whiteSpace=wrap;html=1;fontSize=16;" vertex="1" parent="1">
          <mxGeometry x="520" y="167" width="120" height="60" as="geometry" />
        </mxCell>
        <mxCell id="gj2Nrd75Vjams3eJLkal-6" value="" style="endArrow=classic;html=1;rounded=0;fontSize=12;startSize=8;endSize=8;curved=1;strokeWidth=1;" edge="1" parent="1">
          <mxGeometry width="50" height="50" relative="1" as="geometry">
            <mxPoint x="12" y="182" as="sourcePoint" />
            <mxPoint x="188" y="183" as="targetPoint" />
          </mxGeometry>
        </mxCell>
        <mxCell id="gj2Nrd75Vjams3eJLkal-8" value="&lt;font style=&quot;font-size: 11px;&quot;&gt;Input Pemesanan&lt;/font&gt;" style="text;html=1;align=center;verticalAlign=middle;resizable=0;points=[];autosize=1;strokeColor=none;fillColor=none;fontSize=16;" vertex="1" parent="1">
          <mxGeometry x="50" y="148" width="104" height="31" as="geometry" />
        </mxCell>
        <mxCell id="gj2Nrd75Vjams3eJLkal-9" value="" style="endArrow=classic;html=1;rounded=0;fontSize=12;startSize=8;endSize=8;curved=1;strokeWidth=1;" edge="1" parent="1">
          <mxGeometry width="50" height="50" relative="1" as="geometry">
            <mxPoint x="187.00000000000023" y="204" as="sourcePoint" />
            <mxPoint x="11.000000000000227" y="203" as="targetPoint" />
          </mxGeometry>
        </mxCell>
      </root>
    </mxGraphModel>
  </diagram>
</mxfile>
